/* XPM */
static char * mangopaola_xpm[] = {
"30 30 290 2",
"  	c None",
". 	c #563A1A",
"+ 	c #4E2F22",
"@ 	c #B0907D",
"# 	c #76583E",
"$ 	c #66462E",
"% 	c #DEC9A9",
"& 	c #A57E67",
"* 	c #936C4E",
"= 	c #FADED0",
"- 	c #DCB69B",
"; 	c #613716",
"> 	c #6C513D",
", 	c #F6D9BE",
"' 	c #F8C2AE",
") 	c #9C664F",
"! 	c #B68362",
"~ 	c #F4BEAB",
"{ 	c #F3B69A",
"] 	c #7A522A",
"^ 	c #7E6954",
"/ 	c #624935",
"( 	c #664428",
"_ 	c #D8A68A",
": 	c #F8AE9F",
"< 	c #E8A087",
"[ 	c #8E3C0C",
"} 	c #AC7255",
"| 	c #FEAD8F",
"1 	c #EEA288",
"2 	c #AA8660",
"3 	c #C2AB91",
"4 	c #B39A82",
"5 	c #96735A",
"6 	c #6A442C",
"7 	c #855438",
"8 	c #EA9E7F",
"9 	c #C07D5E",
"0 	c #A26E4B",
"a 	c #B28069",
"b 	c #F1A087",
"c 	c #D6846B",
"d 	c #AA8566",
"e 	c #967456",
"f 	c #9E7B5A",
"g 	c #BE9978",
"h 	c #AD8F71",
"i 	c #6B543A",
"j 	c #6D3210",
"k 	c #A16E4E",
"l 	c #E7D7BE",
"m 	c #F9FBE6",
"n 	c #F4F2E0",
"o 	c #C8B09E",
"p 	c #DDBBA1",
"q 	c #FACBB4",
"r 	c #FCCCB0",
"s 	c #D8A888",
"t 	c #906645",
"u 	c #A48062",
"v 	c #A88C6A",
"w 	c #724F37",
"x 	c #B99A88",
"y 	c #EAD4C8",
"z 	c #E5D4D6",
"A 	c #E9E3E5",
"B 	c #FDF3F4",
"C 	c #FEE8E4",
"D 	c #FADCCF",
"E 	c #F8C1B0",
"F 	c #FCC2AC",
"G 	c #FBBFA4",
"H 	c #F4BCA0",
"I 	c #9E6A4F",
"J 	c #9B744E",
"K 	c #9B7A5B",
"L 	c #5A4023",
"M 	c #C8A996",
"N 	c #DEC8BD",
"O 	c #D2C8CA",
"P 	c #F5E9EE",
"Q 	c #E7DCDD",
"R 	c #E4CCCD",
"S 	c #E5C4C2",
"T 	c #E0C5BA",
"U 	c #E7C6BE",
"V 	c #DEB0A2",
"W 	c #F2B6A1",
"X 	c #FBB89F",
"Y 	c #F8B49B",
"Z 	c #975E3E",
"` 	c #9D7650",
" .	c #7D603F",
"..	c #AC9283",
"+.	c #F5E0D4",
"@.	c #E4D4D2",
"#.	c #EDEDF2",
"$.	c #EBF0EE",
"%.	c #7A807B",
"&.	c #A29A98",
"*.	c #766766",
"=.	c #B2B0AB",
"-.	c #F3F5F5",
";.	c #F6E7E0",
">.	c #D9AA9A",
",.	c #F8B19B",
"'.	c #FEAD95",
").	c #E79E87",
"!.	c #83522C",
"~.	c #966E49",
"{.	c #663C20",
"].	c #937155",
"^.	c #F7ECE6",
"/.	c #F0E1DE",
"(.	c #EDDED7",
"_.	c #F0F4F7",
":.	c #E4E9EC",
"<.	c #212422",
"[.	c #6C5B59",
"}.	c #362323",
"|.	c #6A7471",
"1.	c #EAF8FA",
"2.	c #F4EBE4",
"3.	c #D8A998",
"4.	c #F7AC96",
"5.	c #FDA691",
"6.	c #FCA48E",
"7.	c #B06B4B",
"8.	c #926039",
"9.	c #63411C",
"0.	c #CDB097",
"a.	c #FEFAFA",
"b.	c #F9EEEC",
"c.	c #E7CDC2",
"d.	c #ECE6E4",
"e.	c #E6EAE8",
"f.	c #CFC7BD",
"g.	c #D7ADA4",
"h.	c #D09A94",
"i.	c #EDCFC8",
"j.	c #F2D6D5",
"k.	c #E2B1A8",
"l.	c #EAA08C",
"m.	c #FEA28D",
"n.	c #FE9E8B",
"o.	c #FD9D85",
"p.	c #E69276",
"q.	c #844822",
"r.	c #6F4D28",
"s.	c #7B563C",
"t.	c #F4E2D1",
"u.	c #FDF5F2",
"v.	c #FDE8E2",
"w.	c #F3CFC1",
"x.	c #DDBCB4",
"y.	c #D9BBB1",
"z.	c #DBAC9D",
"A.	c #F4AB9A",
"B.	c #FBA696",
"C.	c #F29D8E",
"D.	c #EC9E91",
"E.	c #F69F8D",
"F.	c #FE9E88",
"G.	c #FE9B85",
"H.	c #FE9783",
"I.	c #FE9782",
"J.	c #F69882",
"K.	c #98522F",
"L.	c #80542E",
"M.	c #5B3719",
"N.	c #966C52",
"O.	c #F8E2D3",
"P.	c #B2978B",
"Q.	c #EBC9BB",
"R.	c #FCD0BF",
"S.	c #FBC4B3",
"T.	c #FCB4A4",
"U.	c #FEA999",
"V.	c #FDA790",
"W.	c #E9987C",
"X.	c #FAA288",
"Y.	c #FF9E86",
"Z.	c #FE9C84",
"`.	c #FD9980",
" +	c #FC9881",
".+	c #FB9882",
"++	c #FF9580",
"@+	c #FB9885",
"#+	c #B66948",
"$+	c #814D24",
"%+	c #643D1A",
"&+	c #8C644B",
"*+	c #F3C8BA",
"=+	c #B27F6A",
"-+	c #E8B9A2",
";+	c #C7937E",
">+	c #EFAF95",
",+	c #F9AB8F",
"'+	c #FDA38C",
")+	c #D4846A",
"!+	c #AF694D",
"~+	c #F9A28A",
"{+	c #FE9683",
"]+	c #FE9584",
"^+	c #FE9583",
"/+	c #FF947E",
"(+	c #FA9684",
"_+	c #D08060",
":+	c #784216",
"<+	c #6C4014",
"[+	c #D99C86",
"}+	c #FBB498",
"|+	c #FCB094",
"1+	c #BA6C52",
"2+	c #EB9E81",
"3+	c #E8A385",
"4+	c #AE704D",
"5+	c #8A4726",
"6+	c #E1B3A2",
"7+	c #F6A48D",
"8+	c #FF9681",
"9+	c #FF9682",
"0+	c #FF9683",
"a+	c #FF9583",
"b+	c #FF9482",
"c+	c #FE9481",
"d+	c #FD9684",
"e+	c #E89074",
"f+	c #793911",
"g+	c #6A3C0C",
"h+	c #813F24",
"i+	c #B87D68",
"j+	c #D18E77",
"k+	c #C5826C",
"l+	c #A16149",
"m+	c #7C4224",
"n+	c #954320",
"o+	c #D4A98F",
"p+	c #FCE1CF",
"q+	c #F89A88",
"r+	c #FF9582",
"s+	c #F3967E",
"t+	c #803A16",
"u+	c #673706",
"v+	c #C78F7F",
"w+	c #FDF4ED",
"x+	c #F8C2AD",
"y+	c #FA9689",
"z+	c #FE9682",
"A+	c #F69981",
"B+	c #86401B",
"C+	c #623304",
"D+	c #885038",
"E+	c #F6D8CE",
"F+	c #F9F6F2",
"G+	c #FC9E91",
"H+	c #F79884",
"I+	c #F89A82",
"J+	c #8C4621",
"K+	c #5F3001",
"L+	c #9D623D",
"M+	c #FEE1E4",
"N+	c #F9F0DE",
"O+	c #F19A8E",
"P+	c #FD9580",
"Q+	c #F89B83",
"R+	c #8D4622",
"S+	c #603202",
"T+	c #814423",
"U+	c #A97068",
"V+	c #D8A78F",
"W+	c #EE9B83",
"X+	c #FF977B",
"Y+	c #FE987C",
"Z+	c #FD987C",
"`+	c #FD987D",
" @	c #FE9B7F",
".@	c #FE9A7E",
"+@	c #F7967E",
"@@	c #D8826D",
"#@	c #A6624A",
"$@	c #78401C",
"%@	c #88472E",
"&@	c #955137",
"*@	c #9C513D",
"=@	c #A05A46",
"-@	c #9B5743",
";@	c #98513B",
">@	c #A6604A",
",@	c #803B23",
"                                                            ",
"                                                            ",
"                                                            ",
"                                                            ",
"                                                            ",
"                .       + @ #                               ",
"              $ % &     * = - ;                             ",
"              > , ' )   ! ~ { ] ^ /                         ",
"              ( _ : < [ } | 1 2 3 4 5 6                     ",
"                7 8 9 0 a b c d e f g h i                   ",
"                j k l m n o p q r s t u v w                 ",
"                x y z A B C D E F G H I J K L               ",
"              M N O P Q R S T U V W X Y Z `  .              ",
"            ..+.@.#.$.%.&.*.=.-.;.>.,.'.).!.~.{.            ",
"          ].^./.(._.:.<.[.}.|.1.2.3.4.5.6.7.8.9.            ",
"          0.a.b.c.d.e.f.g.h.i.j.k.l.m.n.o.p.q.r.            ",
"        s.t.u.v.w.x.y.z.A.B.C.D.E.F.G.H.I.J.K.L.M.          ",
"        N.O.P.Q.R.S.T.U.V.W.X.Y.Z.`. +.+++@+#+$+%+          ",
"        &+*+=+-+;+>+,+'+)+!+~+I.I.{+]+^+/+(+_+:+<+          ",
"          [+}+|+1+2+3+4+5+6+7+8+9+0+a+b+c+d+e+f+g+          ",
"          h+i+j+k+l+m+n+o+p+q+8+8+8+8+8+r+{+s+t+u+          ",
"                      v+w+x+y+z+8+8+8+8+r+{+A+B+C+          ",
"                    D+E+F+G+H+z+8+8+8+8+r+0+I+J+K+          ",
"                    L+M+N+O+P+8+8+8+8+8+r+0+Q+R+S+          ",
"                    T+U+V+W+X+Y+Z+`+ @.@+@@@#@$@            ",
"                          %@&@*@=@-@;@>@,@                  ",
"                                                            ",
"                                                            ",
"                                                            ",
"                                                            "};
